<?xml version="1.0" encoding="UTF-8" standalone="no"?>
<svg
   xmlns:dc="http://purl.org/dc/elements/1.1/"
   xmlns:cc="http://creativecommons.org/ns#"
   xmlns:rdf="http://www.w3.org/1999/02/22-rdf-syntax-ns#"
   xmlns:svg="http://www.w3.org/2000/svg"
   xmlns="http://www.w3.org/2000/svg"
   viewBox="0 0 64 64"
   height="64"
   width="64"
   xml:space="preserve"
   id="svg2"
   version="1.1"><metadata
     id="metadata8"><rdf:RDF><cc:Work
         rdf:about=""><dc:format>image/svg+xml</dc:format><dc:type
           rdf:resource="http://purl.org/dc/dcmitype/StillImage" /></cc:Work></rdf:RDF></metadata><defs
     id="defs6" /><g
     transform="matrix(1.3333333,0,0,1.3333333,0,1.6e-6)"
     id="g10"><g
       id="g12"><path
         id="path14"
         style="fill:#000000;fill-opacity:1;fill-rule:nonzero;stroke:none"
         d="M 40.844,23.031 C 40.488,16.566 34.781,11.477 27.98,12.047 25.805,9.57 22.594,8 19,8 12.656,8 7.492,12.887 7.156,19.031 3.09,19.75 0,23.242 0,27.441 c 0,4.723 3.898,8.555 8.707,8.555 h 2.652 c 1.543,2.395 4.246,4 7.348,4 h 20.582 c 4.813,0 8.711,-3.832 8.711,-8.555 0,-4.203 -3.09,-7.695 -7.156,-8.41 z M 10.055,32 H 8.707 C 6.113,32 4,29.957 4,27.445 4,23.211 8.207,22.25 10.977,22.422 10.875,19.711 11.25,12 19,12 c 1.934,0 3.43,0.5 4.578,1.289 -3.644,1.844 -6.191,5.492 -6.426,9.742 -4.043,0.715 -7.394,4.254 -7.101,8.969 z" /></g></g></svg>