<?xml version="1.0" encoding="UTF-8" standalone="no"?>
<svg
   xmlns:dc="http://purl.org/dc/elements/1.1/"
   xmlns:cc="http://creativecommons.org/ns#"
   xmlns:rdf="http://www.w3.org/1999/02/22-rdf-syntax-ns#"
   xmlns:svg="http://www.w3.org/2000/svg"
   xmlns="http://www.w3.org/2000/svg"
   viewBox="0 0 64 64"
   height="64"
   width="64"
   xml:space="preserve"
   id="svg2"
   version="1.1"><metadata
     id="metadata8"><rdf:RDF><cc:Work
         rdf:about=""><dc:format>image/svg+xml</dc:format><dc:type
           rdf:resource="http://purl.org/dc/dcmitype/StillImage" /></cc:Work></rdf:RDF></metadata><defs
     id="defs6" /><g
     transform="matrix(1.3333333,0,0,1.3333333,0,1.6e-6)"
     id="g10"><g
       id="g12"><path
         id="path14"
         style="fill:#000000;fill-opacity:1;fill-rule:nonzero;stroke:none"
         d="M 8.137,26 H 0 V 22 H 8.137 C 8.055,22.656 8,23.32 8,24 c 0,0.68 0.055,1.344 0.137,2 z M 14.203,11.375 8.441,5.613 5.613,8.441 l 5.762,5.762 c 0.82,-1.058 1.77,-2.008 2.828,-2.828 z m 22.418,2.828 5.762,-5.762 -2.828,-2.828 -5.762,5.762 c 1.055,0.82 2.004,1.773 2.828,2.828 z M 23.996,8 c 0.68,0 1.344,0.055 2,0.137 V 0 h -4 V 8.137 C 22.652,8.055 23.316,8 23.996,8 Z m 0,32 c -0.68,0 -1.344,-0.055 -2,-0.137 V 48 h 4 V 39.863 C 25.34,39.945 24.676,40 23.996,40 Z M 39.859,22 c 0.082,0.656 0.137,1.32 0.137,2 0,0.68 -0.055,1.344 -0.137,2 h 8.137 v -4 z m -6.066,14.625 5.762,5.762 2.828,-2.828 -5.762,-5.762 c -0.824,1.055 -1.773,2.004 -2.828,2.828 z m -22.422,-2.828 -5.762,5.762 2.829,2.828 5.761,-5.762 c -1.054,-0.82 -2.008,-1.77 -2.828,-2.828 z M 23.996,12.004 c -6.629,0 -12,5.371 -12,12 0,6.629 5.371,12 12,12 6.629,0 12,-5.371 12,-12 0,-6.629 -5.371,-12 -12,-12 z" /></g></g></svg>