<?xml version="1.0" encoding="UTF-8" standalone="no"?>
<svg
   xmlns:dc="http://purl.org/dc/elements/1.1/"
   xmlns:cc="http://creativecommons.org/ns#"
   xmlns:rdf="http://www.w3.org/1999/02/22-rdf-syntax-ns#"
   xmlns:svg="http://www.w3.org/2000/svg"
   xmlns="http://www.w3.org/2000/svg"
   viewBox="0 0 64 64"
   height="64"
   width="64"
   xml:space="preserve"
   id="svg2"
   version="1.1"><metadata
     id="metadata8"><rdf:RDF><cc:Work
         rdf:about=""><dc:format>image/svg+xml</dc:format><dc:type
           rdf:resource="http://purl.org/dc/dcmitype/StillImage" /></cc:Work></rdf:RDF></metadata><defs
     id="defs6" /><g
     transform="matrix(1.3333333,0,0,1.3333333,0,1.6e-6)"
     id="g10"><g
       id="g12"><path
         id="path14"
         style="fill:#000000;fill-opacity:1;fill-rule:nonzero;stroke:none"
         d="M 26,4.113 V 2 C 26,0.895 25.105,0 24,0 22.895,0 22,0.895 22,2 V 4.105 C 8.168,5.148 1.258,15.293 0,23.918 c 3.727,-5.356 12.273,-5.356 16,0 3.68,-5.281 12.094,-5.371 15.836,0 3.726,-5.356 12.437,-5.356 16.164,0 C 46.75,15.336 39.75,5.254 26,4.113 Z m 0,20.203 v 17.688 c 0,3.312 -2.688,6 -6,6 -3.312,0 -6,-2.688 -6,-6 v -2 h 4 v 2 c 0,1.101 0.898,2 2,2 1.102,0 2,-0.899 2,-2 V 24.273 c 1.359,-0.453 2.539,-0.484 4,0.047 z" /></g></g></svg>